<svg xmlns="http://www.w3.org/2000/svg" viewBox="0 0 64 64">
  <defs>
    <linearGradient id="g" x1="8" y1="8" x2="56" y2="56" gradientUnits="userSpaceOnUse">
      <stop stop-color="#38bdf8" />
      <stop offset="1" stop-color="#2563eb" />
    </linearGradient>
  </defs>
  <rect x="6" y="6" width="52" height="52" rx="18" fill="#f8fbff" />
  <path
    d="M21 22c0-2.761 2.239-5 5-5h12c2.761 0 5 2.239 5 5v5c0 5.523-4.477 10-10 10h-2c-5.523 0-10-4.477-10-10v-5Z"
    fill="url(#g)"
  />
  <path
    d="M24 27c0 4.418 3.582 8 8 8s8-3.582 8-8"
    fill="none"
    stroke="#f8fbff"
    stroke-linecap="round"
    stroke-width="3"
  />
  <path
    d="M24 26.5c0-3.59 2.91-6.5 6.5-6.5h3c3.59 0 6.5 2.91 6.5 6.5"
    fill="none"
    stroke="#f8fbff"
    stroke-linecap="round"
    stroke-width="3"
  />
</svg>
